# xmcd CD database file
#
# Track frame offsets:
#	150
#	21507
#	61535
#	92100
#	124805
#	171690
#	194175
#	219112
#	250912
#	272075
#
# Disc length: 3770 seconds
#
# Revision: 0
# Processed by: cddbd v1.4PL0 Copyright (c) Steve Scherf et al.
# Submitted via: CDex 1.51
#
DISCID=960eb80a
DTITLE=Triplicated - Appearance
DYEAR=1900
DGENRE=Jazz
TTITLE0=Boogie stop Shuffle
TTITLE1=Jimmy's Rolling Rocks
TTITLE2=Dream of a Dead Man
TTITLE3=Please Flush Thoroughly
TTITLE4=Asphalt Dschungel
TTITLE5=Boulevard of broken Dreams
TTITLE6=Summer Nightmare
TTITLE7=Chuz, Song of Madness
TTITLE8=Rick's Tricks
TTITLE9=A Touch of Tendernes
EXTD=
EXTT0=
EXTT1=
EXTT2=
EXTT3=
EXTT4=
EXTT5=
EXTT6=
EXTT7=
EXTT8=
EXTT9=
PLAYORDER=
